<svg xmlns="http://www.w3.org/2000/svg" viewBox="0 0 1680.4 468.12"><defs><style>.cls-1{fill:#21688a;}.cls-2{fill:#d9882a;}</style></defs><g id="Layer_2" data-name="Layer 2"><g id="Layer_1-2" data-name="Layer 1"><path class="cls-1" d="M118.33,337.1q-5.23,0-18-.63c-1.44-.06-2.52-.09-3.25-.09v6.23h2.8q6.23,0,9,1.62t3.83,5.78q.9,3.6,1.63,51.16.27,22.65.54,36.36L40.37,349.46a78.11,78.11,0,0,1-5.24-6.94,33.88,33.88,0,0,1-3.24-6.14q-4.52.36-8.4.54c-2.58.12-4.84.18-6.76.18q-3.88,0-7.9-.18t-8.25-.54v6.23H3c5.06,0,8.57,1,10.56,3s3,5.57,3,10.74q0,9.48-.05,16.83t-.13,15.11l-.45,24c0,3.19,0,7.62-.09,13.27Q15.63,459,3.55,459c-.72,0-1.3,0-1.76,0s-.85,0-1.21,0v6.23q6-.36,11.32-.54t9.79-.18q4.61,0,17.23.54c1.75.06,3.07.12,4,.18v-6.32h-2.7c-4,0-7-.54-8.8-1.62s-3.11-3-3.83-5.77q-1.27-4.87-1.81-89.33V360l77.42,91,.9,1.09Q113.46,463,115,466.58h10a79.88,79.88,0,0,1-.91-9.79q-.27-6.09-.27-17,0-9.84,0-15.48t.22-11l.36-24q0-4.78.09-13.27.18-33.65,12.28-33.65c.72,0,1.29,0,1.71,0s.81.08,1.17.14l.09-6.23q-1,0-2.88.09Q123.65,337.1,118.33,337.1Z"/><path class="cls-1" d="M255.15,450.75q-7.18,4.38-29.83,4.37-6.85,0-12.58-.27c-3.82-.18-7.24-.45-10.24-.81-.18-5.77-.31-10.81-.36-15.11s-.1-8.44-.1-12.41c0-2.28,0-6,.1-11.23s.09-9.28.09-12.23h22.55q16.42,0,20.89,2.71t4.47,10.37v.73l5.86-.18c-.06-1-.15-2.38-.27-4.24q-.45-7.77-.45-10.11c0-2.71.11-5.65.32-8.84s.52-6.65.94-10.38l-5.68-.54q-.36,6.59-4.56,9T229,394q-2.7,0-10.69-.14T205,393.77h-2.79q.08-4.69.45-20.39t.54-26.53c.84,0,2.16,0,4-.09q13.44-.27,18.5-.27,19.76,0,25.71,3.83T258.08,365l6-.54q-.63-7.12-1.08-14.21t-.54-13.85q-10.56.54-20.8.81t-20.26.27q-9,0-21.47-.27t-28.24-.81v6.05h.72q7.4,0,10.29,3t2.88,10.74q0,8.76,0,16.24t-.14,15.43l-.36,24.64c-.06,3.18-.12,7.61-.18,13.26q-.18,33.75-12.18,33.75c-.78,0-1.37,0-1.76,0s-.8-.07-1.22-.13v5.86l3.25-.09q29.87-1,43.31-1,9.84,0,22,.27t26.35.81q1.53-7.12,3.6-14.35t4.79-14.7l-6.5-2.17Q262.32,446.37,255.15,450.75Z"/><path class="cls-1" d="M408.84,340.62c0-.66,0-1.64.09-2.93s.09-2.24.09-2.84q-3.16,1.8-11.06,2.48t-35.32.67h-22q-20.65,0-28.92-.72t-11-2.43a126.06,126.06,0,0,1-.9,14.88q-.9,7.59-2.62,15.43l5.87,1.27q2.25-11.46,6.9-15t17.91-3.56h18.23v28.78q0,37-.32,54.5t-1.13,20.31q-1.08,4.23-3.79,5.82t-9.11,1.57h-3.16v6.32q7.86-.36,14.57-.54t11.33-.18q5.24,0,11.86.18t14.12.54v-6.32h-3.15q-5.6,0-8.3-1.26a7.46,7.46,0,0,1-3.88-4.51q-1-2.79-1.4-14.17t-.41-43.4q0-8.48.18-33.11.09-9.39.18-14.53h17.06q14.34.45,18.81,4.15t5.55,13.9l5.68-1.09q-1-6.41-1.49-12.45T408.84,340.62Z"/><path class="cls-1" d="M603,337.1q-4.25,0-9.43-.18t-10.87-.54v6.23H585c4.51,0,7.49.49,8.93,1.49s2.17,2.84,2.17,5.54q0,5.78-21.11,65.69-6,17.42-9.57,27.25l-25.62-78.86q-2.54-7.58-3.21-10.47a22,22,0,0,1-.67-4.87q0-3.33,2.07-4.56t8.57-1.21H549v-6.23q-9.12.45-14.48.68c-3.58.15-6.52.22-8.8.22s-5.29-.07-8.66-.22-7.82-.38-13.36-.68l.09,6.23c.42-.06.89-.11,1.4-.14s1.25,0,2.21,0q5.23,0,7.67,2.25T520.44,356l5.5,17.69-27.7,68.93-27-77.06-.36-.9q-4.42-12.54-4.42-16.24c0-2.28.69-3.82,2.07-4.6s4.24-1.17,8.57-1.17v-6.23c-3.73.24-7.39.42-11,.54s-7.13.18-10.56.18q-4.33,0-9.47-.18t-10.92-.54l.09,6.23,1.67-.27a6.84,6.84,0,0,1,1-.09q7.59,0,16.7,26.79,3.78,11.28,6.22,18.14l9.84,27q2.7,7.57,7.4,20.48,10,27.44,10.64,31.94h10.56a117.59,117.59,0,0,1,5.78-16.15q.81-2,1.08-2.7l24.36-60.55,20.94,62.89c.23.72.66,2,1.26,3.79q2.61,8,3.88,12.72h10.56q1-4.77,10.91-30.85,5.5-14.53,8.85-23.47l7.58-19.94,4-10.64q13.08-34.92,16-37.18a9,9,0,0,1,3.11-1.44,17.53,17.53,0,0,1,4.29-.45h1.44v-6.23q-5.24.36-10.33.54T603,337.1Z"/><path class="cls-1" d="M761.79,349.46a56.7,56.7,0,0,0-19.54-12.13,71.23,71.23,0,0,0-24.5-3.93,64.19,64.19,0,0,0-23.91,4.6,66.63,66.63,0,0,0-36.32,35.51,68.32,68.32,0,0,0-5.36,26.93,70.79,70.79,0,0,0,4.46,25.09,68.24,68.24,0,0,0,13,21.47A61.43,61.43,0,0,0,691,462.79a65.41,65.41,0,0,0,26.57,5.33,66.74,66.74,0,0,0,43.22-16.51,66.11,66.11,0,0,0,16.7-23,69.69,69.69,0,0,0,5.86-28.34,70.47,70.47,0,0,0-5.55-27.79A68.17,68.17,0,0,0,761.79,349.46Zm-10.42,93.62q-12.06,14.84-31.72,14.84-20.4,0-34-17.23T672.1,396.56q0-24.18,11.95-38.61t31.72-14.44q20.57,0,34.11,16.83t13.53,43.08Q763.41,428.25,751.37,443.08Z"/><path class="cls-1" d="M907.67,434c-1.2-1.8-2.1-3.19-2.7-4.15l-16.88-25.54q11.82-6,17.73-14.57a33.28,33.28,0,0,0,5.91-19.44q0-14.71-11.82-24.46t-30.31-9.74q-3,0-12,.41t-15,.4q-5.6,0-11.51-.18t-12-.63v6.32h.72q7.39,0,10.28,3t2.89,10.74q0,8.76,0,16.24t-.14,15.43l-.36,24.64c-.06,3.18-.12,7.61-.18,13.26q-.18,33.75-12.18,33.75c-.78,0-1.37,0-1.76,0s-.8-.07-1.22-.13v5.86q7.67-.36,13.72-.54c4-.12,7.15-.18,9.38-.18q6.22,0,12.54.18t12.73.54v-5.95a1,1,0,0,1-.32-.09,1.61,1.61,0,0,0-.59-.1,4,4,0,0,0-.72.1,3.87,3.87,0,0,1-.72.09q-8.31,0-11.1-3.57t-2.8-17.1v-27.7h5.42q4.68,0,8.57-.18c2.59-.12,5-.3,7.31-.54q9.2,13.17,18.27,28.06t10,16.06q5.42,7.41,11,10t15.12,2.57q2.7,0,8.57-.54c1.68-.18,2.95-.3,3.79-.36v-5.14h-.9Q925.18,460.72,907.67,434Zm-30.58-32.3q-3.8.36-7,.49c-2.17.09-4.09.14-5.78.14q-3,0-6.81-.18t-8.17-.63q0-20,.09-31.85t.36-23q3.43-.63,7-.95c2.35-.21,4.75-.32,7.22-.32q13.71,0,21.84,7.58t8.12,20.12a32,32,0,0,1-4.06,16.47Q885.75,396.47,877.09,401.71Z"/><path class="cls-1" d="M999.74,346.57q2.75-4.05,10.87-4.05h1.17v-6.14q-6,.36-11.73.54t-11.37.18c-3.19,0-6.73-.06-10.64-.18s-8-.3-12.28-.54v6.32a12.35,12.35,0,0,0,1.27-.09q.81-.09,1.08-.09,7.13,0,9.7,4.6t2.57,20.19q0,2.52-.09,9.51t-.09,11.5v24c0,2.71,0,6.22.09,10.55s.09,7.27.09,8.84q0,17.31-2.57,22.31t-9.7,5c-.72,0-1.29,0-1.71,0s-.82,0-1.18,0v6.23q7.21-.36,13.27-.54t10.19-.18q5.24,0,11.42.18t12.95.54v-6.32c-.36,0-.88,0-1.54.09s-1.14.09-1.44.09c-5.24,0-8.72-1.32-10.47-4S997,445.18,997,433.4V367.49Q997,350.63,999.74,346.57Z"/><path class="cls-1" d="M1086.86,459c-.37,0-.88,0-1.54,0q-8.11,0-25.53-17.85l-4.61-4.6L1014,395.17l44.75-42.83.91-.9q9.47-8.93,19.76-8.92h.81v-6.14q-6,.36-11.1.54t-8.93.18q-5.42,0-11.1-.18t-11.46-.54v6.14h2.25a12.55,12.55,0,0,1,5.64.94,3.12,3.12,0,0,1,1.76,2.93q0,1.82-9.11,11.63-4.07,4.25-6.41,6.86L997,402.39q10.92,11.17,28.34,28.58,28.79,28.57,28.78,33.27a1.83,1.83,0,0,1,0,.49c0,.1-.08.23-.14.41q5-.36,9.34-.54t7.8-.18q3.43,0,12.82.54c1.62.06,2.91.12,3.88.18l-.09-6.32A3.66,3.66,0,0,1,1086.86,459Z"/><path class="cls-1" d="M1169,394c-1.51-.54-3.67-1.27-6.5-2.17q-31.76-10.64-31.76-25.62a18,18,0,0,1,7.44-14.89q7.46-5.78,19.36-5.78,12.9,0,20,5.42t8.61,16.6l7-1.35a97.15,97.15,0,0,1-2.39-12.82,112.49,112.49,0,0,1-.77-13.17,163.86,163.86,0,0,0-17-3.79,89.25,89.25,0,0,0-13.72-1.08q-18.5,0-30.77,10.37t-12.27,25.9q0,13.17,7.85,21.66t26,14.34c1.38.49,3.31,1.12,5.77,1.9q26.17,8.29,26.17,23.28a21.16,21.16,0,0,1-8.39,17.28q-8.38,6.72-21.75,6.72-15.24,0-23-6.86t-9.3-21.65l-8.12,1.89a115.06,115.06,0,0,1,2.17,12.45,109.88,109.88,0,0,1,.72,12.64c0,1.56,0,2.75,0,3.56s-.07,1.52-.13,2.12a101,101,0,0,0,16.56,4.38,99.14,99.14,0,0,0,16.73,1.39q22.47,0,36.1-11.14t13.62-29.1q0-11.64-6.86-19.53T1169,394Z"/><path class="cls-1" d="M1382.54,450.12q-7,4.47-31.18,4.46-4.06,0-8.62-.13t-9.61-.41l-.27-66.08V370q0-17.67,2.53-22.58t9.65-4.91h2.8V336.2q-5.6.45-11.23.68t-11.51.22q-3.06,0-8.07-.22t-14.67-.77v6.41h.73q7.67,0,10.33,5t2.66,21.59c0,1.63,0,4.51-.09,8.66s-.09,7.54-.09,10.19l-.18,24.52q-.09,4.42-.09,12.26-.09,34.63-12.27,34.72c-.79,0-1.37,0-1.76,0s-.8-.07-1.22-.13v5.86q13-.45,22.56-.68t17.32-.22q11,0,23.6.22t27.56.68q1.63-7.58,3.79-15.07t5-15.25l-6.5-2Q1389.53,445.65,1382.54,450.12Z"/><path class="cls-1" d="M1516.19,340.62c0-.66,0-1.64.1-2.93s.09-2.24.09-2.84q-3.17,1.8-11.06,2.48T1470,338h-22q-20.67,0-28.92-.72t-11-2.43a126.06,126.06,0,0,1-.9,14.88q-.92,7.59-2.62,15.43l5.86,1.27q2.26-11.46,6.91-15t17.91-3.56h18.22v28.78q0,37-.31,54.5T1452,451.43q-1.08,4.23-3.79,5.82t-9.11,1.57H1436v6.32q7.85-.36,14.57-.54t11.33-.18q5.22,0,11.86.18t14.12.54v-6.32h-3.16c-3.73,0-6.49-.42-8.3-1.26a7.49,7.49,0,0,1-3.88-4.51q-1-2.79-1.4-14.17t-.4-43.4q0-8.48.18-33.11.09-9.39.18-14.53h17.05q14.36.45,18.82,4.15t5.55,13.9l5.68-1.09q-1-6.41-1.49-12.45T1516.19,340.62Z"/><path class="cls-1" d="M1658.11,352.62q-19.3-17.06-52.87-17.05-2.09,0-14,.77t-21.88.76c-2.28,0-5.13-.07-8.52-.22l-11.06-.5v6.23h.72q7.41,0,10.29,3t2.89,10.74q0,9.48-.05,16.83t-.13,15.11l-.36,24q-.09,4.78-.18,13.27-.18,33.48-12.18,33.47c-.79,0-1.39,0-1.81,0s-.81,0-1.17,0v6.23q6.32-.36,11.64-.54c3.55-.12,6.55-.18,9-.18q7.85,0,20.48.72t17.42.72q32.39,0,51.75-18.36t19.35-48.5Q1677.42,369.67,1658.11,352.62Zm-13.67,90.5q-13.57,13.9-39,13.9a118.84,118.84,0,0,1-25.72-2.8V429.68q0-12.63.23-31.58t.76-51.79q5.77-.82,11.28-1.22t10.83-.41q26,0,40.6,15.61T1658,403.42Q1658,429.24,1644.44,443.12Z"/><path class="cls-1" d="M1057.46,6.28q-8.93,0-21.38-.51t-31.29-1.52v18c.81,0,1.68,0,2.63-.1s2.29-.1,4.05-.1q17.22,0,23.3,10.94t6.08,53.68V108q0,8.51.2,23.6t.2,21.57q0,34.24-2.94,51.56t-9.82,28.06a64.28,64.28,0,0,1-26.74,23.8q-16.41,7.8-39.71,7.8-28.37,0-47.81-12.86t-27.14-37q-3.45-9.92-4.87-27t-1.41-58V83.06q0-40.92,6.07-50.95t23.3-10c.67,0,1.75.07,3.24.2s2.64.21,3.45.21V4.25q-24.32,1-38.7,1.52t-23.9.51q-10.34,0-24.62-.51T792.48,4.25V7.78Q754,5.59,717.28,6q-7-1.65-13.63-2.82A205,205,0,0,0,668.3,0q-36.09,0-61.94,12.56C216.63,55.78,0,295.1,0,295.1H144.14C190,160.11,385.06,84,568.2,46.27q-10.69,18-10.71,41.25,0,28.56,16.71,47.6t55.2,33.43q6.48,2.43,18.84,6.68Q704,194.88,704,224.06q0,20.46-15.8,32.61T645,268.83q-33.82,0-51-14.79T569.24,202l-22.09,5.47a300.91,300.91,0,0,1,6,33.43,270.37,270.37,0,0,1,1.92,31.81c0,1.21-.06,3.07-.2,5.57s-.2,4.49-.2,6a222.69,222.69,0,0,0,37.88,10.84A203,203,0,0,0,631,298.81q57.94,0,91.77-26.34T756.62,202q0-24.3-13.27-41.93t-39.8-28.56q-11.76-4.66-36.16-12.77t-34.34-13.37q-12.76-6.68-18.84-15.49t-6.08-21q0-18.24,14.79-28.57A50.29,50.29,0,0,1,636,33.9q13-2.07,25.65-3.89c.74,0,1.47,0,2.21,0Q692,30,708.1,43.35t19.55,39.71l21.07-3.45q-3.44-16.39-5.16-31.9c-1-9.24-1.57-18.27-1.68-27.13,17.79-1.62,34.73-2.83,50.6-3.66v5.57h4.86q17,0,22.79,8.61t5.78,44.06q0,16.82-.61,44.77t-.61,38.89q0,40.94,4.86,61.59A99.71,99.71,0,0,0,846,256.87q15.39,21.08,42.24,32.52t61.48,11.44q37.68,0,66.05-14.18t42.94-40.11q14.6-25.92,15-95.21V140.19q.21-6.08.21-17.22,1-78,4.86-88.13a16.52,16.52,0,0,1,8.51-9.62q5.87-2.73,18-2.73h3.24V4.25q-19,1-30.9,1.52T1057.46,6.28Z"/><path class="cls-1" d="M1244.44,174q9.72-.21,22.28-.61,15.6,24.32,36.27,58.44t25.93,40.42Q1340,285.64,1354,291.11t38.69,5.47q6.88,0,16-.51t21.48-1.52v-17a19.94,19.94,0,0,0-2.33.2,17.94,17.94,0,0,1-2.33.2q-14.79,0-27.86-11.34t-41.42-55.51l-39.71-55.91q29-13,43.45-31.2a65.79,65.79,0,0,0,14.49-42.14q0-35.85-29-56.72T1266.32,4.25q-7.69,0-30,1t-37.28,1q-10.53,0-24.71-.51t-35.86-1.52V22.08h4.25q17,0,23.2,7.5t6.18,33q0,19.84-.1,34t-.31,28.57l-.81,45.37V207q0,47-5.77,57.94t-22.39,10.94c-2.16,0-3.74,0-4.76-.1s-2.06-.17-3.14-.31v17.83q31.41-1.43,42.44-1.72t16.72-.31q17.41,0,34,.51t33.22,1.52V275.11h-5.67q-17.82,0-23.9-8t-6.08-39V174.22Q1234.72,174.22,1244.44,174Zm-18.74-94.2q.1-24.1.31-46.19,6.88-1.22,14.07-1.82T1256,31.2q28.35,0,45.48,15.7t17.12,41q0,19.45-8.21,33.93t-25.83,25.83q-7.69.62-14.79.91t-13.37.31q-5.06,0-12.56-.31t-18.23-.91Q1225.6,103.93,1225.7,79.82Z"/><path class="cls-1" d="M1511.44,290.91q16.21,0,55.92,1.82l12.15.61v-18c-1.08,0-2.46.07-4.15.2s-2.94.2-3.75.2q-19.65,0-26.23-7.71t-6.59-38.76v-69h7.09q8.71,0,22.18-.2t18.54-.2q33,0,42.64,6.07t9.63,23.3v3.65l16.81-.81q-.2-5.07-.61-13.78-1-17.22-1-22.28,0-8.51.81-19.65t2.63-27.15l-17-1.21q-.81,15.6-10.54,21.27t-40.51,5.67q-6.07,0-22.89-.2t-27.76-.41q.4-19.25.71-44.46t.71-56.22q15.39-.62,27.75-.91t21.07-.31q43.15,0,57,9.22t16.31,35.55l18-2.43q-2.64-20.05-3.85-37.37t-1.22-33.13q-29,1.21-56,1.83T1567,6.69q-25.12,0-54.09-.61t-62.39-1.83V22.09h3.64q17.63,0,24,6.8t6.38,26.66q0,10.74-.2,32.64t-.21,33.45v52.1q.21,4.45.31,9.43t.1,14.49v20.68q0,37.31-6,47.54t-22.58,10.24c-2.3,0-4,0-5.17-.1s-2.2-.17-3.14-.31v17.63q10.93-.4,29.37-1.22Q1504,290.9,1511.44,290.91Z"/><path class="cls-2" d="M98.7,196.62l.81-2h2.76C115,185.46,128.9,176,143.82,166.43c-6.87,0-12.55,0-17.06-.09q-8.61-.1-16.31-.31L154.61,54l30.06,87.48c18.64-10.8,38.59-21.58,59.82-32.1L266.32,54l13.3,38.75q23.2-10.5,48.2-20.33-11.38-32.37-23.23-67H255.17Q238,49.15,221.9,88.88q-14.13-40-29-83.49H143.46q-35,89.34-65.62,161.86Q58.35,213.44,47.75,236.6C62,224.75,78.89,211.47,98.39,197.39,98.49,197.14,98.58,196.88,98.7,196.62Z"/><path class="cls-2" d="M408.42,273.1q-6.78-4.56-11.25-15.3-10.53-23.69-37-95.31-6.48-17.6-13.15-36.05c-16.55,7.27-32.56,15-47.87,23.26L304.8,166q-8.12.21-17.42.31-6.7.07-17.2.09c-22.57,14-43.14,29.26-61.05,45.84l5.12,14.83,5.6,16.52a93.41,93.41,0,0,1,2.93,10.75,36.83,36.83,0,0,1,.71,6.67c0,6.23-1.89,10.54-5.68,13q-3.37,2.16-10.38,3h0a92,92,0,0,1-11.27.6H192.5V295.9q7.92-.36,14.73-.64h0l12.65.64v-1.15c5.29-.2,9.84-.36,13.7-.47q14.17-.4,23.1-.41,9.31,0,23.09.41,9.4.27,24.39.94v.69l7.78-.35,7.33.35v-.66q16.13-.71,26-1,14.18-.4,23.09-.41,9.31,0,23.1.41T431,295.9V277.66h-4.44Q415.21,277.66,408.42,273.1Zm-78.9.92q-4.89,3.14-17.42,3.57h0c-6.28-.33-11.39-1.84-15.35-4.49q-6.78-4.56-11.23-15.3-5.31-11.93-14.65-36l-10.45-28H261q4.66,0,23.5.31l9.32.15h.72c8,.12,14.83.25,20.35.34l16.61,49a91.81,91.81,0,0,1,2.94,10.75,37.64,37.64,0,0,1,.7,6.67C335.18,267.27,333.3,271.58,329.52,274Z"/></g></g></svg>